# xmcd
#
# Track frame offsets:
#	150
#	17515
#	37367
#	53265
#	69185
#	93100
#	110412
#	126137
#	151160
#	168492
#	188407
#	204302
#	220190
#	244062
#	261390
#	277130
#	313597
#
# Disc length: 4193 seconds
#
# Revision: 1
# Processed by: cddbd v1.5.2PL0 Copyright (c) Steve Scherf et al.
# Submitted via: audiograbber 1.83.01
#
DISCID=e3105f11
DTITLE=Sound Choice - SC2324
DYEAR=1900
DGENRE=
TTITLE0=Coe, David Allen - Jack Daniels If You Please
TTITLE1=Coe, David Allen - Mona Lisa Lost Her Smile
TTITLE2=Coe, David Allen - Willie Waylon And Me
TTITLE3=Coe, David Allen - The Ride
TTITLE4=Coe, David Allen - If That Ain't Country
TTITLE5=Coe, David Allen - Longhaired Redneck
TTITLE6=Coe, David Allen - She Used To Love Me A Lot
TTITLE7=Coe, David Allen - You Never Called Me By My Name
TTITLE8=Coe, David Allen - Jack Daniels If You Please (Vocal)
TTITLE9=Coe, David Allen - Mona Lisa Lost Her Smile (Vocal)
TTITLE10=Coe, David Allen - Willie Waylon And Me (Vocal)
TTITLE11=Coe, David Allen - The Ride (Vocal)
TTITLE12=Coe, David Allen - If That Ain't Country (Vocal)
TTITLE13=Coe, David Allen - Longhaired Redneck (Vocal)
TTITLE14=Coe, David Allen - She Used To Love Me A Lot (Vocal)
TTITLE15=Coe, David Allen - You Never Called Me By My Name (Vocal)
TTITLE16=x - Data Track
EXTD=
EXTT0=
EXTT1=
EXTT2=
EXTT3=
EXTT4=
EXTT5=
EXTT6=
EXTT7=
EXTT8=
EXTT9=
EXTT10=
EXTT11=
EXTT12=
EXTT13=
EXTT14=
EXTT15=
EXTT16=
PLAYORDER=
